<mxfile modified="2023-03-15T22:02:31.006Z" host="Electron" agent="5.0 (Windows NT 10.0; Win64; x64) AppleWebKit/537.36 (KHTML, like Gecko) draw.io/20.3.0 Chrome/104.0.5112.114 Electron/20.1.3 Safari/537.36" etag="cfWRAjx2s3Xh_RwXw7lR" compressed="false" version="20.3.0" type="device">
  <diagram id="mmUZakIsOv3NwlKeWruH" name="Functionality/Configuration - Environment Host">
    <mxGraphModel dx="782" dy="517" grid="1" gridSize="10" guides="1" tooltips="1" connect="1" arrows="1" fold="1" page="1" pageScale="1" pageWidth="827" pageHeight="1169" math="0" shadow="0">
      <root>
        <mxCell id="ZjFRYGrIWTZQ1t4Ij7CG-0" />
        <mxCell id="ZjFRYGrIWTZQ1t4Ij7CG-1" parent="ZjFRYGrIWTZQ1t4Ij7CG-0" />
        <UserObject label="&lt;p style=&quot;line-height: 100%&quot;&gt;Default &lt;br style=&quot;font-size: 12px&quot;&gt;Locale Code&lt;br&gt;ISO 639-1&lt;/p&gt;" link="https://en.wikipedia.org/wiki/List_of_ISO_639-1_codes" id="ZjFRYGrIWTZQ1t4Ij7CG-2">
          <mxCell style="rounded=0;whiteSpace=wrap;html=1;fontFamily=Helvetica;fontSize=12;fontColor=#000000;align=center;strokeColor=#000000;strokeWidth=1;gradientColor=#ffffff;" parent="ZjFRYGrIWTZQ1t4Ij7CG-1" vertex="1">
            <mxGeometry x="417.97" y="300" width="80" height="40" as="geometry" />
          </mxCell>
        </UserObject>
        <mxCell id="ZjFRYGrIWTZQ1t4Ij7CG-3" value="&lt;p style=&quot;line-height: 100%&quot;&gt;UTC Offset&lt;br style=&quot;font-size: 12px&quot;&gt;(Timezone)&lt;br&gt;ISO 8601&lt;br&gt;&lt;/p&gt;" style="rounded=0;whiteSpace=wrap;html=1;fontFamily=Helvetica;fontSize=12;fontColor=#000000;align=center;strokeColor=#000000;strokeWidth=1;gradientColor=#ffffff;" parent="ZjFRYGrIWTZQ1t4Ij7CG-1" vertex="1">
          <mxGeometry x="417.97" y="250" width="80" height="40" as="geometry" />
        </mxCell>
        <UserObject label="Slow&lt;br style=&quot;font-size: 12px;&quot;&gt;Cache Duration" tooltip="eg: 3 seconds" id="ZjFRYGrIWTZQ1t4Ij7CG-4">
          <mxCell style="rounded=0;whiteSpace=wrap;html=1;fontFamily=Helvetica;fontSize=12;fontColor=#000000;align=center;strokeColor=#000000;strokeWidth=1;gradientColor=#ffffff;" parent="ZjFRYGrIWTZQ1t4Ij7CG-1" vertex="1">
            <mxGeometry x="510" y="250" width="80" height="40" as="geometry" />
          </mxCell>
        </UserObject>
        <UserObject label="Long&lt;br style=&quot;font-size: 12px;&quot;&gt;Cache Duration" tooltip="eg: 1 minute" id="ZjFRYGrIWTZQ1t4Ij7CG-5">
          <mxCell style="rounded=0;whiteSpace=wrap;html=1;fontFamily=Helvetica;fontSize=12;fontColor=#000000;align=center;strokeColor=#000000;strokeWidth=1;gradientColor=#ffffff;" parent="ZjFRYGrIWTZQ1t4Ij7CG-1" vertex="1">
            <mxGeometry x="510" y="300" width="80" height="40" as="geometry" />
          </mxCell>
        </UserObject>
        <mxCell id="ZjFRYGrIWTZQ1t4Ij7CG-6" value="Cache&lt;br&gt;ConnString&lt;br&gt;Template" style="rounded=0;whiteSpace=wrap;html=1;fontFamily=Helvetica;fontSize=12;fontColor=#000000;align=center;strokeColor=#000000;strokeWidth=1;gradientColor=#ffffff;" parent="ZjFRYGrIWTZQ1t4Ij7CG-1" vertex="1">
          <mxGeometry x="327.97" y="250" width="80" height="40" as="geometry" />
        </mxCell>
        <mxCell id="ZjFRYGrIWTZQ1t4Ij7CG-7" value="DataStore/DB ConnString&lt;br&gt;Template" style="rounded=0;whiteSpace=wrap;html=1;fontFamily=Helvetica;fontSize=12;fontColor=#000000;align=center;strokeColor=#000000;strokeWidth=1;gradientColor=#ffffff;" parent="ZjFRYGrIWTZQ1t4Ij7CG-1" vertex="1">
          <mxGeometry x="327.97" y="300" width="80" height="40" as="geometry" />
        </mxCell>
        <mxCell id="ZjFRYGrIWTZQ1t4Ij7CG-8" value="IdP ConnString&lt;br&gt;Template" style="rounded=0;whiteSpace=wrap;html=1;fontFamily=Helvetica;fontSize=12;fontColor=#000000;align=center;strokeColor=#000000;strokeWidth=1;gradientColor=#ffffff;" parent="ZjFRYGrIWTZQ1t4Ij7CG-1" vertex="1">
          <mxGeometry x="327.97" y="350" width="80" height="40" as="geometry" />
        </mxCell>
        <mxCell id="ZjFRYGrIWTZQ1t4Ij7CG-9" value="Email MTA Server&lt;br&gt;Variables" style="rounded=0;whiteSpace=wrap;html=1;fontFamily=Helvetica;fontSize=12;fontColor=#000000;align=center;strokeColor=#000000;strokeWidth=1;gradientColor=#ffffff;" parent="ZjFRYGrIWTZQ1t4Ij7CG-1" vertex="1">
          <mxGeometry x="327.97" y="400" width="80" height="40" as="geometry" />
        </mxCell>
        <mxCell id="ZjFRYGrIWTZQ1t4Ij7CG-10" value="Malware ConnString&lt;br&gt;Template" style="rounded=0;whiteSpace=wrap;html=1;fontFamily=Helvetica;fontSize=12;fontColor=#000000;align=center;strokeColor=#000000;strokeWidth=1;gradientColor=#ffffff;" parent="ZjFRYGrIWTZQ1t4Ij7CG-1" vertex="1">
          <mxGeometry x="600" y="300" width="80" height="40" as="geometry" />
        </mxCell>
        <UserObject label="&lt;p style=&quot;line-height: 100%&quot;&gt;Default &lt;br style=&quot;font-size: 12px&quot;&gt;Currency.Code&lt;br&gt;&lt;font style=&quot;font-size: 10px&quot;&gt;ISO-4217:2015&lt;/font&gt;&lt;/p&gt;" link="https://www.iso.org/standard/64758.html" id="ZjFRYGrIWTZQ1t4Ij7CG-11">
          <mxCell style="rounded=0;whiteSpace=wrap;html=1;fontFamily=Helvetica;fontSize=12;fontColor=#000000;align=center;strokeColor=#000000;strokeWidth=1;gradientColor=#ffffff;" parent="ZjFRYGrIWTZQ1t4Ij7CG-1" vertex="1">
            <mxGeometry x="600" y="350" width="80" height="40" as="geometry" />
          </mxCell>
        </UserObject>
        <mxCell id="ZjFRYGrIWTZQ1t4Ij7CG-12" value="Diagnostics&lt;br&gt;Relative Location" style="rounded=0;whiteSpace=wrap;html=1;fontFamily=Helvetica;fontSize=12;fontColor=#000000;align=center;strokeColor=#000000;strokeWidth=1;gradientColor=#ffffff;" parent="ZjFRYGrIWTZQ1t4Ij7CG-1" vertex="1">
          <mxGeometry x="327.97" y="200" width="80" height="40" as="geometry" />
        </mxCell>
        <mxCell id="ZjFRYGrIWTZQ1t4Ij7CG-13" value="&lt;font style=&quot;font-size: 12px&quot;&gt;System Administrator&lt;/font&gt;" style="shape=umlActor;verticalLabelPosition=bottom;labelBackgroundColor=#ffffff;verticalAlign=top;html=1;comic=0;strokeColor=#000000;strokeWidth=1;fillColor=none;gradientColor=#ffffff;fontSize=10;align=center;" parent="ZjFRYGrIWTZQ1t4Ij7CG-1" vertex="1">
          <mxGeometry x="130" y="290" width="20" height="40" as="geometry" />
        </mxCell>
        <mxCell id="ZjFRYGrIWTZQ1t4Ij7CG-14" value="" style="endArrow=open;endFill=1;endSize=12;html=1;strokeColor=#000000;fontSize=10;entryX=0;entryY=0.5;entryDx=0;entryDy=0;" parent="ZjFRYGrIWTZQ1t4Ij7CG-1" target="ZjFRYGrIWTZQ1t4Ij7CG-15" edge="1">
          <mxGeometry width="160" relative="1" as="geometry">
            <mxPoint x="160" y="310" as="sourcePoint" />
            <mxPoint x="220" y="250" as="targetPoint" />
          </mxGeometry>
        </mxCell>
        <mxCell id="ZjFRYGrIWTZQ1t4Ij7CG-15" value="Configure Host" style="ellipse;whiteSpace=wrap;html=1;comic=1;strokeColor=#000000;strokeWidth=1;fillColor=none;gradientColor=#ffffff;fontSize=12;align=center;" parent="ZjFRYGrIWTZQ1t4Ij7CG-1" vertex="1">
          <mxGeometry x="200" y="290" width="120" height="40" as="geometry" />
        </mxCell>
        <mxCell id="ylLB6kigihS2s04wvmxO-0" value="Title" parent="ZjFRYGrIWTZQ1t4Ij7CG-0" visible="0" />
        <mxCell id="ZjFRYGrIWTZQ1t4Ij7CG-19" value="&lt;font style=&quot;font-size: 12px&quot;&gt;&lt;span&gt;Diagram: Information&amp;nbsp;&lt;/span&gt;System Base&amp;nbsp;&lt;span&gt;Logical Module -&amp;nbsp;&lt;/span&gt;&lt;span&gt;Functionality -&amp;nbsp;&lt;/span&gt;Configuration&lt;/font&gt;" style="text;strokeColor=none;fillColor=none;html=1;fontSize=10;fontStyle=2;verticalAlign=middle;align=left;shadow=0;glass=0;comic=0;opacity=30;fontColor=#808080;" parent="ylLB6kigihS2s04wvmxO-0" vertex="1">
          <mxGeometry x="120" y="470" width="520" height="20" as="geometry" />
        </mxCell>
      </root>
    </mxGraphModel>
  </diagram>
</mxfile>
